<svg id="svg8" xmlns="http://www.w3.org/2000/svg" viewBox="0 0 1079.18 1078.15"><defs><style>.cls-1{fill:#fff;}</style></defs><title>crous</title><g id="layer1"><g id="g1081"><path id="path1095" class="cls-1" d="M504.43,1077.23c-108.55-6-216.55-48.2-304.73-119C109.85,886.19,42.86,780.46,15.24,667.14,3.4,618.57.42,592.9.42,539.42s3-79.16,14.73-127.36c10-40.86,20.84-70.67,40.11-109.91C109.44,191.86,196.33,105.69,306.33,53.22c115.2-55,242-67.68,365.29-36.63,91.29,23,179.63,73.15,247.32,140.44,83.31,82.82,137,189.88,154.33,307.82,2,13.47,3.6,28.26,3.6,32.87,0,7.48-.56,8.27-5.18,7.32-27.79-5.74-47.33-2-59.08,11.42-6.17,7-7.15,9.91-7.15,21,0,11.44.82,13.64,7.64,20.46,5.4,5.4,12.64,9.12,24.76,12.71,21.35,6.33,27.49,10.08,27.49,16.79,0,8.18-4.46,10.77-18.56,10.77-10,0-16-1.57-25.74-6.78l-12.71-6.77-4.22,9.37-4.23,9.38,6.82,5.48c11.77,9.47,38.51,14.47,56,10.45l10-2.29L1071,628.89c-2.67,19.53-16.17,70.41-25.17,94.93-26.35,71.71-72.3,143.64-125.59,196.57C808.93,1031,662.9,1086.05,504.43,1077.23Zm-372-540.11V453H120.89V621.2h11.52Zm107.27,80.7c6.25-1.86,14.79-6.26,19-9.79,7-5.91,7.36-6.77,4.22-11-3.38-4.58-3.44-4.57-9.07.72-6,5.67-23.77,12-33.66,11.94-18,0-34.78-10.61-42-26.38-8.29-18.27-10.68-17.38,46.57-17.38h50.89L274,553.82c-2.92-21.72-13.4-38.55-29.14-46.8-19.34-10.13-50.91-5.08-64.89,10.4-25.45,28.17-24.87,64.31,1.43,89.55C195.68,620.64,216.9,624.59,239.68,617.82Zm-65.81-66.73c0-12.24,16.61-32.19,29.87-35.87,21.67-6,43.4,1.15,52.44,17.29,2.83,5.07,5.17,12.07,5.19,15.55l0,6.34H217.64C181.15,554.4,173.87,553.85,173.87,551.09Zm187.21,63.53c11-6.82,16.53-18,14.88-30.21-2-14.69-10.44-22.1-33.52-29.29-22.76-7.1-32.66-14.33-32.66-23.88,0-15.38,20.47-22.06,44-14.34,13.79,4.52,13.81,4.52,16.29-.12,3.31-6.19-1.63-9.73-18.42-13.22-33.18-6.88-55.59,6.79-52.72,32.19,1.39,12.38,9.94,21,26.87,27,25.33,9,31.11,11.83,35.35,17.51,8.63,11.55-.51,25.82-18.23,28.48-11.92,1.79-30.94-2.37-38.67-8.45-6.91-5.43-9.67-5.52-11.65-.36s7.86,13.34,21.78,17.89c14.12,4.61,36.57,3.1,46.69-3.15Zm204.23,1.75c11.42-3.42,33.35-22.62,39.41-34.5,2.49-4.87,4.53-9.42,4.53-10.11s-6.71-1.24-14.91-1.24c-14,0-15.22.43-20.16,7.15-7.76,10.55-25.7,19-37.14,17.45-10-1.34-25.1-10.85-31.76-20C503,572,499.44,562.89,497.44,555c-3.32-13.14-3.32-15.65,0-28.79,6.35-24.86,21.76-38.58,43.34-38.58,13.36,0,27,6.48,33.84,16.06,4.64,6.52,5.92,7,19.78,7,8.15,0,14.82-.55,14.82-1.23s-2.55-6.24-5.65-12.37c-11-21.66-35.53-35.79-62.34-35.88C502,461,469.92,492.29,467,533.5c-1.47,20.6,2.44,36.1,13.39,53,18.88,29.22,50.25,40.23,84.95,29.83Zm238.4-.73c10.25-4.32,28.16-24.51,31.08-35,3.27-11.77,3.17-29.23-.21-40.54-1.5-5-7.46-14.1-13.25-20.23-23.7-25.08-62.17-23.63-84.14,3.17-10,12.17-12.78,20.9-12.72,39.42.07,17.39,5.5,29.73,18.68,42.39,16.19,15.56,39.46,19.71,60.56,10.81Zm-37.06-24.92c-9.67-6.87-12.29-11.56-13.86-24.79-1-8.73-.2-13.46,3.82-21.77,8.92-18.42,26-22.79,40.26-10.29,15.87,13.93,16.43,38.16,1.24,53.35C787.78,597.54,777.82,598.65,766.65,590.72ZM936.17,619c12.48-3.58,25-13.59,30.05-24.07,4.17-8.63,4.69-14.16,4.69-50.43V503.72H945.57l-.09,9.79c-.25,30.22-3,67.78-5.16,70.41-3.68,4.49-14.54,9.64-20.34,9.64-2.79,0-8.54-2.65-12.78-5.88l-7.7-5.88V503.72H871.85v40.73c0,36.37.51,41.79,4.73,50.5,9.95,20.57,35.57,30.89,59.59,24ZM669.56,579.53l.73-39.37,6.45-5.54c3.55-3,10.6-6.21,15.66-7l9.21-1.47-.69-11.76c-.81-13.86-3.07-15-22-10.72a47.87,47.87,0,0,0-33.09,26.54c-3.53,7.77-4.2,15.52-4.24,49l0,39.74h27.33Zm386.9-28.69c-25.67-8.19-31.06-14.9-19.36-24.1,5.22-4.11,8.07-4.69,16.7-3.4a91.43,91.43,0,0,1,17.89,4.67c7.17,3,7.48,3.65,7.48,15.9,0,14.74.92,14.46-22.71,6.93Z" transform="translate(0 0)"/><path id="path1093" class="cls-1" d="M506.74,1077.19C315.12,1066,142.61,951.46,55.82,777.84,31,728.14,11.89,665.68,4.26,609.17c-5-37.26-5-102.13,0-139.25C25.46,312.57,113.91,173.1,247.58,86.19,371.94,5.33,523.86-19.54,671.44,16.79,742.66,34.32,819.21,73,879.92,122c25.48,20.6,68.45,65.21,88.07,91.43q92.65,123.81,107.87,274.77l1.56,15.63-18.35-1.53c-37.61-3.14-59.19,13.09-54.62,41.08,2.24,13.76,11.22,21.24,33.68,28.09,22.31,6.81,29,12,25,19.52-5.08,9.48-22.2,8.66-44.55-2.14-10.52-5.08-11.23-4.75-16.3,7.58l-3.57,8.67,8.54,5.48c12.07,7.76,30.43,11.44,49.17,9.87,8.69-.73,15.8-.77,15.8-.09s-2.13,11.76-4.75,24.62C1014,908.85,775.13,1092.89,506.74,1077.19ZM134.16,536.54l-.6-84.65-6.34-.73-6.33-.73V621.2h13.88ZM242.6,617.88c11-3.9,23.41-12.53,23.41-16.34,0-1.46-1.9-4.39-4.23-6.49-4-3.59-4.51-3.52-8.64,1.11-6.69,7.51-17.73,11.22-33.39,11.22-16.65,0-28.25-5.47-36.19-17.06-5.68-8.29-10.05-21-7.94-23.08.73-.73,23.44-1.33,50.46-1.33h49.15v-7.64c0-15.3-6.88-32.18-17.13-42-11.88-11.43-26-15.92-44.72-14.23-17.84,1.62-30.93,8.71-40.54,21.94-18.72,25.76-16.55,59.19,5.23,80.94,5.93,5.91,14.4,11.9,18.84,13.3,11.67,3.7,34.79,3.55,45.69-.29ZM175,552c-2.25-3.64,7.65-22.18,15.27-28.59,7.09-6,19.84-10.47,29.71-10.5,20.48,0,41.45,18,41.45,35.58v5.88H218.93C192.34,554.4,175.9,553.51,175,552ZM354,618.5c13.41-4,22.61-15.65,22.61-28.59,0-19.48-8.52-28.06-36-36.2-29.15-8.64-37.91-20.07-25.16-32.82,4.76-4.76,7.86-5.66,19.65-5.66,7.7,0,17.83,1.61,22.52,3.56,7.86,3.29,8.74,3.26,11.44-.44,4.26-5.82,3.74-7.17-4.56-11.65-5.48-3-12.85-4.06-27.47-4.09-22.95-.05-29.95,3.34-37.27,18.06-8.15,16.41,1.29,34.09,22.1,41.37,5.4,1.89,14.88,5.23,21.07,7.42,14.59,5.16,19.84,10.59,19.84,20.47,0,5.87-1.62,9.18-6.33,12.89-5.49,4.32-8.67,4.88-23.78,4.2-14.54-.66-19.1-1.89-27.37-7.36-7.88-5.22-10.32-5.93-11.89-3.45-3.39,5.35-2.11,9.86,4.09,14.38,13.29,9.69,38.68,13.24,56.49,7.91Zm217.53-3.74c13.45-6.89,23.68-16,31.22-27.94,10.22-16.12,9.21-18.6-7.58-18.6-13.74,0-14.33.25-22.86,9.93-20.14,22.89-52.75,19.43-68.44-7.25-5.55-9.44-6.32-13.13-6.32-30.33s.77-20.88,6.32-30.32c15.5-26.37,47.74-30,68.05-7.69,9.21,10.11,9.79,10.37,23.4,10.37,16.05,0,16.84-1.43,9.14-16.54-6-11.76-16-21.15-30.89-29.11-10-5.33-14.23-6.14-32.25-6.16-18.69,0-21.95.65-33,6.81C481,483,466.42,508.29,466.42,540.57c0,29.24,12.06,53.09,35.15,69.53,16.61,11.83,51.43,14.15,69.93,4.66Zm225.6,3.87c13-3.27,29-17.23,35.74-31.13,6.39-13.2,6.95-36.71,1.2-50.38s-21-28.06-34.36-32.5-33.8-3.4-44.69,2.23c-18.88,9.77-31.24,30.66-31.52,53.3-.23,18.2,5.48,32.41,17.9,44.6,15,14.68,33.86,19.38,55.73,13.88Zm-33.29-31c-13.13-11-14.82-35.7-3.39-49.29,15.51-18.43,41.07-11.22,46.54,13.13,3.17,14.11-.61,29.07-9.17,36.27a26.73,26.73,0,0,1-34-.11Zm176,31c12.68-3.48,27.3-19,30.74-32.68,1.46-5.81,2.66-26.7,2.66-46.41V503.72h-30V540.4c0,36.1-.09,36.79-6,43.77-4.75,5.64-7.76,7.08-14.79,7.08-20.72,0-23-5.16-23-51.71V503.72h-30V536.8c0,18.2,1.06,38.67,2.35,45.48,5.67,29.89,34.76,45.47,67.91,36.36ZM671.44,579l1.15-38.79,6.47-5.55a22.45,22.45,0,0,1,14.39-5.55h7.94V501.41H691.31c-12.46,0-28.3,5.41-35.66,12.18-12.09,11.12-14,20.06-14.1,64.53l0,41,14.39-.69,14.4-.69Zm386.18-29.16c-22.54-8-26.38-11.35-22.55-19.76,2.66-5.84,3.43-6.07,17.34-5.18,20.31,1.29,26.76,5.9,26.76,19.1,0,5.59-.77,10.64-1.72,11.21S1067.58,553.31,1057.62,549.79Z" transform="translate(0 0)"/><path id="path1091" class="cls-1" d="M457,1071.63c-42.49-7-64.16-12.56-100.76-25.81-74.56-27-138.54-67.59-195.29-124-32-31.8-46.77-49.46-69.35-83-14.55-21.58-34.56-56.54-41.09-71.79C18.22,691.75,5.93,643.33,1.17,572.63-12.58,368.43,95.93,170.09,276.81,68.79c137.55-77,306.45-89.61,451.47-33.63C856.93,84.81,958,175.55,1019,296.07c30.85,61,50,125.86,56.66,191.82l1.54,15.27L1056.82,502c-17.47-1-22-.45-32.06,3.86-19.7,8.48-27.54,30.71-17,48.09,4.26,7,24,18.79,31.44,18.85,1.48,0,7.51,2.09,13.4,4.62,9.46,4.05,10.62,5.33,10,10.94-.72,6.27-.92,6.35-16.86,6.18-11.8-.13-18.72-1.52-25.82-5.19-5.34-2.75-10.24-5-10.9-5-1.61,0-10.5,17.59-10.5,20.77,0,1.39,6,5.32,13.24,8.73,11.35,5.32,16.55,6.26,36.29,6.57l23,.37-.73,6.54c-1.81,16.33-13.22,61.76-21.56,85.94-11.1,32.15-36.11,84.7-52.81,111-75,117.93-189.87,202.29-321.11,235.72-52.77,13.45-68.43,15.43-129,16.36-50,.77-58.5.32-88.88-4.69ZM247.5,616.24c17.68-7.62,21.52-13.08,15.24-21.67-3.22-4.4-3.34-4.4-8.63.44-10.75,9.84-20.09,12.9-36.5,12-12.55-.71-17-2.08-23.86-7.29-8.86-6.76-17.58-21.18-17.58-29.09,0-4.58,1.22-4.7,49.85-4.7h49.85l-1.22-13.41c-2.86-31.57-23.07-50.92-53.29-51-18.06-.06-29.47,3.65-40.68,13.24-14.9,12.76-19.42,23.61-19.43,46.61,0,14.64,1.07,21.61,4.26,27.64,5.46,10.31,16.89,22.47,25.24,26.84C205.93,623.74,229.66,623.93,247.5,616.24ZM177.08,547c4.59-23,30.4-38.21,53.91-31.88A40.26,40.26,0,0,1,257.83,538c7.31,16.21,6.85,16.4-40.41,16.4H175.6Zm-42.37-11.17V450.44l-7.49.72-7.48.73-.61,84.65-.6,84.66h16.18Zm225,80.92c20.28-9.21,24.37-37.57,7.47-51.79-3.86-3.25-14.2-8.09-23-10.75-21.25-6.46-30.77-13-31.64-21.76-1.15-11.57,3.91-15.67,20.64-16.74,10.19-.65,17.5.21,23.63,2.77,9.72,4.06,15.15,2.06,15.15-5.6,0-5.62-17.79-11.46-34.92-11.46-27.59,0-42.85,12.87-40.45,34.13,1.63,14.5,11.49,23,35.41,30.48,26.24,8.23,34.62,17.06,29.31,30.89-4,10.45-31.21,13.85-48.39,6.05-5.22-2.37-10.21-5.46-11.07-6.86-2.64-4.26-7.33-2.85-10,3-2.75,6-.35,9.4,10.87,15.22C318.32,622.39,344.77,623.52,359.7,616.74Zm206.51.79c13.81-4.71,32.51-21.53,39.71-35.74,3.09-6.12,5.63-11.67,5.63-12.34s-7.52-1.23-16.7-1.22c-16.11,0-16.84.26-20.6,6.86-12.6,22.16-45.64,23.87-63.74,3.3-19.95-22.66-19.12-55.62,1.94-77.28,7.88-8.1,12.73-11.09,19.94-12.27,15-2.46,28.18,2.25,39.12,14,9.38,10,9.69,10.14,24.77,10.14,8.4,0,15.27-.55,15.27-1.23,0-3.05-11.82-24.12-17-30.22-3.13-3.72-11.22-9.83-18-13.57-11.19-6.2-14.24-6.81-34.17-6.81-18.21,0-23.69.89-32.7,5.33-22.37,11-38.4,33.23-43.24,59.89-5.35,29.53,6.88,63.4,29,80.26,17.93,13.67,48.75,18.44,70.74,10.95Zm240-1.54c10.56-5.53,22.07-17.87,27.35-29.34,6.74-14.61,6.4-38.71-.74-53.58-13.77-28.65-49.41-40.13-78.61-25.32-45,22.8-40.85,92.64,6.48,110.3,10.8,4,36,2.89,45.52-2.06Zm-38.58-26c-18.92-10.27-18.61-47.53.48-57.4,13.22-6.84,29.28-2.23,35.74,10.25,1.92,3.72,3.49,12.05,3.49,18.51s-1.57,14.78-3.49,18.5C797.41,592.29,780.62,597,767.64,590Zm179.81,25.27c8.91-4.44,13.63-8.74,18.31-16.7,6.14-10.46,6.32-11.75,7.06-52.76l.76-42H943.74l-.82,38.21-.81,38.21-6.46,5.55a21.7,21.7,0,0,1-27.78.79l-6.07-4.78v-78H869.18l.76,42c.75,41.19.89,42.26,7.17,52.94,9.25,15.74,21.79,22,44.39,22.32,10.64.14,16.79-1.24,26-5.8ZM671.87,579.53c.7-38.22.88-39.5,6.18-43.79,3-2.43,9.48-5.06,14.4-5.84l8.94-1.43V501.41H689c-18.6,0-35.13,9.34-42.76,24.16-5.48,10.66-5.89,13.86-6.69,52.34l-.85,41h32.46ZM1066.5,552c-2.53-1.15-10.47-4.23-17.63-6.84-15.16-5.51-18.45-10.64-10.81-16.83,5.81-4.7,19.49-3.89,33.63,2,6.06,2.53,7.48,4.42,7.48,10C1079.17,553.65,1076.2,556.4,1066.5,552Z" transform="translate(0 0)"/><path id="path1089" class="cls-1" d="M481.4,1075.13c-5.07-1.08-18-3.16-28.8-4.63-44-6-98.7-23.19-146.27-46C139.59,944.68,25.08,784,3.34,599.32,0,570.8-.06,507.25,3.27,479.53,18.31,354.22,75.09,239.36,165,152.41c43.73-42.31,85.34-71.18,141.35-98.06,76-36.48,147.52-52.94,230.35-53,71.42-.06,124.41,9.23,187.74,32.9C800.56,62.69,862.7,102.51,919.3,159.11c61,60.95,101.89,127.25,129.91,210.41,13.58,40.28,23.78,88,25.74,120.38.7,11.55.36,12.61-3.84,12.05-2.53-.34-11.89-.86-20.78-1.15-30.45-1-48.43,14.14-46.55,39.22,1.37,18.25,5.91,22.22,40.26,35.18,16.56,6.25,19,7.89,19,12.72,0,4-1.61,6-5.9,7-9.48,2.38-25.52-.39-38-6.58l-11.6-5.74-5.57,11c-6.26,12.34-6.35,12.16,10.4,20.91,8.89,4.64,13.73,5.42,34,5.46,27.75.06,26.32-2.43,19.06,33.22-6.25,30.65-25.32,85.58-41.27,118.86-68.91,143.76-198.54,249.86-351.94,288.05-53.85,13.4-69,15.32-127.44,16.17-29.78.44-58.29-.09-63.35-1.17Zm-350.33-453c3.23-1.24,3.64-11,3.64-86.38v-85H118.58v84.85c0,46.67.7,85.54,1.54,86.39,1.91,1.91,6.18,2,10.95.13Zm116.86-5.94c5.9-2.5,12.93-6.9,15.63-9.77,4.79-5.1,4.8-5.36.68-10.45L260,590.71l-11,7.76c-10.07,7.1-12.43,7.76-27.9,7.76-15.08,0-17.95-.75-26.83-7-11.94-8.4-21.55-27.43-15.7-31.13,1.85-1.17,24.88-2.14,51.19-2.16l47.83,0-1.39-9.79c-4.1-29-14.55-43.93-36.62-52.18-15.42-5.77-21.83-6-37.79-1.24-23.17,6.88-39.13,27.4-41.18,52.95-4,50.13,40,80.62,87.32,60.51Zm-71.76-66.22c0-9.21,12.12-25.59,23-31.13,15.5-7.86,35.22-5.64,46.86,5.26,6.43,6,15.34,20.91,15.34,25.63,0,1.57-14.66,2.39-42.62,2.39-24.9,0-42.62-.89-42.62-2.15ZM360.68,616.4a31.17,31.17,0,0,0,4.39-53.21c-3.17-2.31-14.44-7.26-25.06-11s-21.23-8.57-23.61-10.72c-4.34-3.93-5.7-13.68-2.55-18.39,5.81-8.7,28.1-10.38,43.71-3.3,9.56,4.34,9.83,4.34,12.1.1a20.41,20.41,0,0,0,2.32-7.75c0-5.17-20-11.77-35.71-11.82-25.09-.07-40.28,12.4-40.3,33.06,0,14.62,11.63,25.75,34,32.56,21.94,6.66,31.4,13.12,32.29,22,.5,5-.95,8.45-5.38,12.6-5.29,5-8.14,5.68-22.57,5.62-14,0-18-1-26.25-6.33-11.69-7.53-13.52-7.69-16.83-1.52-3.21,6-.21,10,12.55,16.46,17.39,8.88,41,9.55,56.86,1.63Zm202.57,2.51c19.37-5.38,41.61-26.88,47.09-45.51,1.48-5,1.06-5.18-15.42-5.18-16.28,0-17.09.26-20.91,6.74-11.5,19.45-40.81,23.36-59.21,7.88-12.14-10.21-17.17-22.61-17.17-42.27,0-13.32,1.15-19.45,5-26.77,9.42-17.8,27.63-27.91,44.65-24.79,9.89,1.81,23.46,10.84,27.42,18.23,2.82,5.27,4.32,5.69,20.09,5.69,16.61,0,17-.13,15.44-5.18-5.19-16.82-18.1-32-34.21-40.29-9.23-4.74-16-6.24-31.94-7-19.08-1-21.06-.62-35,6.25-28.86,14.21-43.37,38.94-43.37,73.91,0,25,6,41.61,21,57.72,18.19,19.56,49.71,28.06,76.49,20.62Zm238.87-1.24c28.91-12.08,43.49-43.86,34.39-75s-41.29-49.11-71.8-40.24c-40.57,11.8-56,65.51-28.42,98.87C750.81,618.9,781.16,626.43,802.12,617.67Zm-34-27.91c-18.45-12.28-20.16-38-3.55-53.22,11.29-10.37,21.4-10.24,33,.4,8.32,7.63,8.6,8.4,8.6,23.61,0,12.13-1.05,17.14-4.61,21.91-8.4,11.26-22.8,14.4-33.46,7.3Zm173.06,28.78c12.8-4.34,20.26-10.86,26.83-23.46,5.89-11.31,6.24-13.83,7.07-51.63l.88-39.73H941v38.11c0,37.4-.11,38.22-5.65,43.77a20,20,0,0,1-27.86,0c-5.54-5.55-5.65-6.37-5.65-43.77V503.72H885.92c-19.24,0-18.18-2.73-17.47,44.92.54,36.38,2.2,43.82,12.8,57.3s39.42,19.57,59.94,12.6ZM671.44,583.08c0-46.05,2.42-51.72,22.07-51.72h7.88V516.31c0-17.89-1.39-18.93-20.28-15.18s-30.39,12.6-36.66,28c-4.57,11.22-5.12,16.7-5.19,51.15l-.07,38.59h32.25Zm386.15-34.71c-8.71-3-17.26-6.58-19-8-3.77-3.13-4.18-10.39-.71-12.53,4.17-2.58,16.73-2.09,28.12,1.1l10.88,3.05v11.22c0,6.17-.78,11.07-1.73,10.89S1066.29,551.33,1057.59,548.37Z" transform="translate(0 0)"/><path id="path1087" class="cls-1" d="M480.25,1074.9c-7-1.19-23-3.84-35.71-5.89-67-10.81-143.36-41.61-205-82.66C109.76,900,22.68,757.64,3.49,600.53,0,571.88.55,501.23,4.52,471,15,391.6,46.85,307.18,91.32,241.23,118.42,201,125.9,192,159.87,158.06c45.33-45.24,85-73.53,141.85-101.23,51.3-25,94.09-39,152-49.64,27.8-5.13,111-7.16,141.11-3.45,91.42,11.26,170.4,40,243.59,88.75,99.64,66.32,172.76,162.86,211.15,278.77,14.58,44,25,94.27,25,120.81v9.12l-19-1.24c-17.63-1.16-19.92-.77-31.67,5.29-10.19,5.26-13.74,8.69-18.11,17.5-11.73,23.66,1.14,41.4,38.84,53.53,15.06,4.84,18.43,7.21,18.43,12.92,0,9.2-24.48,8.51-43.88-1.23L1008,582.33l-4.44,7.34c-9,14.93-8.68,16.69,4.73,23.12,17,8.16,37.72,11.78,51.07,8.93,9.82-2.09,10.64-1.92,10.64,2.28,0,11.14-10.25,53-20.59,84.17-44.19,133-135.15,240.79-258.55,306.37-38.57,20.5-92.21,40.17-133.2,48.84-50.32,10.65-61.83,12-112.87,12.81-28.51.48-57.54-.1-64.5-1.29ZM134.16,536.8c.55-77.78.26-85.68-3.2-87a14.25,14.25,0,0,0-8.09-.1c-4.08,1.29-4.29,5.56-4.29,87.73v86.37l7.49-.72,7.49-.72Zm112,80.92C257.4,613,268.32,605,268.32,601.54c0-1.46-2.06-4.53-4.58-6.81-4.43-4-4.86-4-13.25,1.86-12.05,8.34-29.12,12-40.91,8.77-18.25-5-26.49-13.15-32.05-31.64-1.31-4.34-.31-5,9.28-6.33,5.91-.81,28.88-1.48,51.05-1.48h40.31l-1.38-11.69c-5.32-44.91-45-67.56-84.16-48-22.11,11-32.58,28.75-32.58,55.09,0,30.33,14.74,50.6,43.77,60.18,8.24,2.72,31.86.62,42.35-3.77Zm-70-66.85c0-3.28,7.55-18.69,11-22.55,12.15-13.43,39.45-17.46,53.5-7.9,9.42,6.41,15.46,14.41,18.25,24.19l2.13,7.48H218.63C195.28,552.09,176.17,551.54,176.17,550.87Zm183.75,66.46a33.4,33.4,0,0,0,19-30c0-15.75-11.41-26.45-38-35.63-23.82-8.22-28.8-11.74-28.8-20.38,0-9.08,7.35-14.44,21.42-15.61,10.9-.9,18.66,1.07,32,8.15.87.46,3.25-2.36,5.27-6.28l3.69-7.12-12.19-5.67c-30.85-14.36-66.32-.56-66.32,25.8,0,18.62,8.19,27.27,33.4,35.29,17.86,5.68,30.95,13.58,32.47,19.61,2.85,11.35-10.61,21.79-28.15,21.83-7.07,0-23.1-6-31.09-11.7-3.79-2.7-7.21-4.54-7.6-4.08a65,65,0,0,0-3.52,6.22c-9.17,17.61,42.38,32.31,68.45,19.53Zm213.78-2.94c14.22-6.49,26.23-18.46,34.11-34,5.84-11.51,5.12-12.21-12.42-12.21-16.1,0-16.21,0-25.92,10.14-14.82,15.41-34.48,18.31-51,7.52-14.6-9.57-24.25-35.09-20.9-55.29,2.13-12.8,5.8-19.39,16.69-29.93,17.12-16.57,37.54-15.78,55.46,2.14,10,10,10.29,10.13,26.21,10.13h16.07l-1.54-6.11c-.84-3.36-4.58-10.54-8.3-15.95-14.54-21.14-34.58-31.5-60.92-31.5-22,0-36.6,5.92-52,21.06-17.5,17.24-23.72,33-23.72,60.14,0,24.75,6.37,42.36,21,58,22.87,24.45,55.35,30.37,87.14,15.86Zm373.49,2c11.62-5.62,22.55-19.14,26.09-32.26,1.29-4.81,2.07-25.13,1.72-45.14l-.64-36.39H942.11L941,542.23c-1.29,44.49-1.91,46.18-17.57,48.28-6.83.91-10.37.09-14.72-3.42-5.6-4.54-5.74-5.45-6.87-44.58l-1.15-39.94H868.4l.07,41.46c.08,44.27,1.2,49.53,13.44,63,14.81,16.28,42.71,20.27,65.28,9.34Zm-140.34-.69c19.12-9.73,30.71-27.65,32.32-50,3.33-46-41.64-79.81-81.34-61.12-14.35,6.75-22.28,14.11-29.15,27.06-7.49,14.11-7.7,44.87-.41,58.46,11,20.44,28.49,30.87,52.09,31,12.07.07,18.1-1.17,26.49-5.44Zm-35.39-24.24c-2.64-1.12-7.56-5.33-10.94-9.35-12.06-14.33-6.6-41,10.15-49.66,28.84-14.91,50.85,32.13,25.69,54.91-5.4,4.88-18.15,7-24.9,4.1Zm-100-7.16c0-47.28,1.86-51.39,24.19-53.43,6.9-.63,6.91-.64,6.91-15.61v-15L691,499.59c-15.76-.91-34.23,8.45-43.75,22.17l-6.93,10-.71,43.58-.72,43.58h32.53Zm386-36.53c-19-6.54-23.87-10.59-21.21-17.53,1.34-3.49,3.66-3.91,16.09-2.91,20.83,1.67,24.54,4.21,24.54,16.81,0,5.66-.26,10.2-.58,10.11l-18.84-6.48Z" transform="translate(0 0)"/><path id="path1085" class="cls-1" d="M468.73,1072.57c-162-23.85-291.66-105.75-381.29-240.76C70.31,806,46.57,758.64,34.41,726c-9.17-24.59-24.08-81.49-29.1-111-4.73-27.8-4-129.31,1.15-157.31,10.44-56.93,26.76-107.66,50-155.5,27-55.52,57.24-97.62,103.55-144.1Q277,40.7,448,9c30.2-5.59,38.58-6.18,87.53-6.17,75.74,0,118,6.84,180.83,29.2,166.55,59.27,288.29,187.51,338.49,356.59,9.56,32.22,19.72,85.86,19.72,104.18v7.83l-19.43-1c-16.67-.88-20.92-.3-30,4.1-15.68,7.6-23.13,18.57-23.13,34.1,0,12.05.43,12.92,11.08,22.56,8.38,7.59,15.33,11.31,28.55,15.3,19.72,6,25.44,11.4,18,17.1-6.27,4.78-24.07,2.61-38.94-4.75-6.3-3.12-12.31-5.14-13.36-4.5-2.46,1.52-11,18.34-11,21.65,0,1.39,7,5.82,15.54,9.83,13.92,6.53,17.8,7.3,36.86,7.34,14.42,0,21.31.9,21.31,2.68,0,11.65-16.87,74.87-27.88,104.49-8.77,23.59-30.56,67.84-44.23,89.84-65.28,105-156.33,180.05-271.12,223.43-78.3,29.59-179.88,41.33-258,29.83Zm-334-536.75V448.14l-7.49.72-7.48.72-.61,87-.6,87h16.18Zm114.58,80.71c16.65-8.32,20.88-12.61,17.59-17.83-5.11-8.09-9.1-8.43-18.14-1.53-7.19,5.48-11.45,6.79-24.41,7.53-20.16,1.13-33.43-4.65-40.82-17.79-8.5-15.13-7.25-17.8,9.13-19.52,7.78-.81,30.07-1.48,49.52-1.48h35.37v-7.64c0-21.77-14.27-45.29-33-54.35-12.89-6.24-35.74-6.45-49-.46q-37.57,17.07-35,62.45c.67,11.48,2.64,20.47,5.89,26.78,14.71,28.6,51.87,39.3,82.81,23.84Zm-70.66-71.92c3.12-10.93,9.27-18.14,20.55-24.1,23.95-12.67,54.15-.15,59.08,24.48l1.42,7.1H176.5ZM358,619c14.29-7.29,20.93-16.91,20.93-30.31,0-6.71-1.56-13.8-3.78-17.19-5-7.65-19.41-15.88-37.74-21.56-8.21-2.54-17.25-6.27-20.1-8.28-9.28-6.53-5.65-19.6,6.63-23.88,10.65-3.71,18.65-3.15,31.16,2.21l11.1,4.76,4.14-5.1c5.56-6.88,4.39-9.26-7.56-15.36-20.7-10.55-53.56-5-62.8,10.68-5,8.51-5.23,27.4-.36,34.35,4.1,5.86,19.5,14.1,37.14,19.87,17.16,5.62,23.74,11.45,23.74,21,0,10.16-8.47,14.86-26.77,14.86-10.38,0-15.77-1.46-25.42-6.91-6.73-3.8-12.65-6.91-13.15-6.91s-2.25,3.25-3.9,7.22c-2.67,6.46-2.52,7.58,1.45,10.62C311.4,623.42,340.59,627.86,358,619Zm209.17-.68c15.82-6.17,35.54-24.49,42.09-39.09l4.43-9.86-17.53-.68L578.6,568l-6.77,8.21c-9.1,11-17.59,15-32,15s-24-5.65-32.94-19.46c-11.79-18.18-13.15-37.91-3.85-56,12.88-25,39.63-33.59,59.68-19.07,5.19,3.77,10.57,8.95,11.94,11.52,2.2,4.11,4.77,4.68,20.89,4.68h18.37l-3.47-8.31c-6.09-14.57-18.92-29.74-30.44-36-22.18-12-52.92-12.77-74.29-1.83-32.71,16.74-50.64,65.68-37.19,101.52,10.44,27.81,23.63,41.47,48.74,50.51,16.81,6,33.51,5.87,49.87-.52Zm234.85.43c14.11-6,24.89-16.29,32.48-31,13.76-26.58,3.93-61.84-22.06-79.1-10.2-6.77-15-8.42-26.94-9.17-17.43-1.11-27.37,1.85-40.94,12.21-11,8.41-21.26,26.68-23.77,42.37-1.8,11.26,3.55,30.16,12.55,44.33,5.15,8.1,10.21,12.36,21.2,17.85,17.34,8.67,31.25,9.39,47.48,2.46Zm-28-26.91c-17.4-4-25.67-32.33-14.36-49.12a33.54,33.54,0,0,1,13.95-11.07c7.77-2.95,9.61-2.9,16.56.41,9.9,4.72,15.22,12.82,16.63,25.32,2.44,21.65-13.9,38.82-32.78,34.46Zm171.46,26c13.2-6.69,24.69-19.7,27.91-31.63,1.27-4.69,2-25.42,1.68-46.08l-.64-37.54H942.11l-.66,38c-.57,33.21-1.21,38.74-5.05,43.77-3.54,4.65-6.4,5.76-14.81,5.76-17.79,0-18.52-1.85-19.36-48.55l-.73-40.33-16.55.67-16.55.68-.64,36.63c-.78,45.22,1.81,56.59,15.83,69.26,12.58,11.36,21.26,14.84,37.29,14.95,9.73.07,16.35-1.44,24.53-5.59ZM671.64,580.89c.74-21.54,1.52-39.38,1.73-39.65,5.2-6.69,11.83-9.88,20.5-9.88h10l-.68-15.55-.68-15.55-11.9-.69c-19.64-1.14-37.83,9.63-47.35,28.05-4.31,8.33-5,14.42-5.95,49.49-.84,32.31-.43,40.39,2.13,42.06,1.75,1.14,9.4,1.8,17,1.47l13.82-.59Zm386.8-33.16c-21.25-7.51-23-8.61-23-14.16,0-7.68,18.52-9,35.13-2.5,5.61,2.2,6.33,3.67,6.33,12.9,0,5.74-.26,10.3-.58,10.15s-8.35-3-17.85-6.39Z" transform="translate(0 0)"/><path id="path1083" class="cls-1" d="M464.12,1071.28c-111.88-15-222.38-69.49-301.71-148.66C83.32,843.7,35.29,754.44,11.69,642.5-14.72,517.25,9,380.14,77,264.44,133.61,168.18,222.24,90,323.6,47c47.11-20,89.91-31.89,148.58-41.24C483.05,4,510,2.86,537.83,3c69.66.21,111.7,7,173.86,27.91,32.67,11,86.87,36.55,114.09,53.76a535.74,535.74,0,0,1,194.64,217.53c29.74,60.9,47.49,121.76,53.14,182.16l1.52,16.3-19.55-1c-24-1.26-32.61,1.36-44.45,13.49-8.71,8.91-9.08,9.9-9.08,24.49,0,15.06.09,15.27,9.82,23.44,6.11,5.14,17.39,10.88,29.93,15.22,22,7.6,26.48,12.76,15.55,17.74-8.11,3.7-28.77-.56-40.53-8.34-6.85-4.53-9.11-5.09-11.06-2.74-4.19,5.05-9.81,20.27-8.62,23.36.62,1.62,7.16,5.9,14.54,9.52,12,5.87,15.83,6.58,35.87,6.58,13.48,0,22.42.92,22.37,2.3-.2,5.73-6.82,34.47-13.26,57.59q-47.7,171.27-191.67,283.67c-63.61,49.62-150.11,87.71-229.2,100.95-52.9,8.85-124.87,10.7-171.62,4.42Zm-333-446.87c3.23-1.24,3.64-11.22,3.64-88.69V448.43H118.58v88.69c0,85.89.14,88.69,4.42,88.69A27.06,27.06,0,0,0,131.07,624.41Zm118.15-7.17c6.6-3.25,14.12-8.17,16.72-10.93l4.71-5-5.88-5.52c-4.91-4.6-6.52-5-9.8-2.66-17.74,12.88-41.11,15.66-56.7,6.74-11.1-6.35-17.48-14.66-18.14-23.64l-.5-6.84L228,568.22l48.38-1.15.8-6.92c.44-3.8-.42-12.39-1.92-19.09-2.13-9.61-5.23-14.85-14.62-24.77-10.29-10.88-13.87-13.07-26.42-16.2-23.06-5.74-42.08-.31-58.56,16.72-9.41,9.72-17.76,30.77-17.86,45-.06,8.76,7.28,31.22,13.16,40.27,4.53,7,23.13,18.55,34.11,21.21,13.06,3.15,30.29.8,44.15-6Zm-70.74-68.78c0-8.43,7.88-19.78,17.75-25.56,12.36-7.25,30-8.23,42.14-2.34,9,4.38,18,16,18.94,24.67l.64,5.71-39.74.63c-35.37.56-39.73.22-39.73-3.11Zm182.36,70c16.52-10.91,22.24-23.13,18.07-38.62-3.41-12.67-14.37-20.9-39.18-29.42-21.4-7.35-27.68-11.65-27.61-18.9.13-13.12,21.95-18.08,44.3-10.07,10.57,3.79,11.05,3.77,14.32-.56,5.93-7.83,4.25-12.45-6.25-17.21-6.77-3.08-15-4.46-26.72-4.5-19.53-.06-30.25,4-37.51,14.21-6.42,9-6.62,27.54-.4,36.09,4.74,6.49,22.17,15.94,41,22.24,14.44,4.82,19.58,9.35,19.58,17.25,0,9.47-7.38,14.55-22.79,15.66q-19.79,1.42-37.62-11.52c-3.31-2.41-4.54-2.14-7.46,1.67-5.6,7.31-3.2,12.91,8.67,20.19C318.44,625.49,347.57,627.19,360.84,618.44Zm213.74-3.26c13.56-6.78,18.5-10.86,26.8-22.13,5.59-7.6,10.17-14.66,10.17-15.68a20.86,20.86,0,0,1,1.4-5.51c1.2-3.13-1.17-3.64-17-3.64-16.63,0-18.75.51-21.86,5.25-1.89,2.89-7.69,8.2-12.88,11.8-8.47,5.87-10.91,6.44-23.64,5.52-13-.94-14.91-1.8-22.75-10.2-10.63-11.4-19.33-33.44-17.56-44.49,2.06-12.8,13.41-33.09,21.53-38.45,16.84-11.15,35.7-8.81,51.35,6.38,8.88,8.61,11.06,9.57,23.87,10.46,18.64,1.3,21.29-.58,16.59-11.82-13.65-32.67-51.71-50.88-87.75-42-25.47,6.29-40.7,19.66-53.28,46.79-5.26,11.32-6.29,16.72-6.34,33.1-.06,17.49.73,21.23,7.43,35,9.83,20.13,14.87,26.26,29,35.23,16.22,10.31,23,12.35,41.93,12.56,14.42.16,18.39-.82,33-8.14Zm237.95-1.35A60.56,60.56,0,0,0,833,592c6.92-12,7.73-15.2,7.68-30.66,0-13.24-1.23-19.5-5.07-26.76-12.58-23.77-30.79-35.44-55.29-35.44-17.29,0-26.87,3.58-39,14.57-13.94,12.6-20.24,27.13-20.29,46.87,0,13.79,1.06,18.61,6.63,29.28,7.9,15.1,12.47,19.68,27.88,27.89,10,5.33,13.7,6,27.89,5.36s18-1.84,29.12-9.25Zm-47.08-28.91c-12.44-13.34-14.3-25.31-6.18-39.76,5.5-9.79,12.4-13.8,23.76-13.8,9.48,0,21,11.88,23.29,24,4.88,26-24.42,47.21-40.87,29.57Zm177.31,35c11.33-4.72,23.09-16.14,28.38-27.53,3.65-7.86,4.28-15.18,4.32-50.1l0-40.89H941v37.88c0,36.54-.19,38.11-5.46,44.23-4.16,4.84-7.53,6.35-14.12,6.35s-10-1.51-14.12-6.35c-5.27-6.12-5.46-7.69-5.46-44.23V501.41H866.89l.75,43.2c.67,38,1.31,44.19,5.36,51.55,4.92,8.93,15,18.33,25.71,23.9,8.61,4.49,33.15,4.42,44-.13ZM671.45,587.22c0-18.69,1-37.7,2.32-42.25,2.59-9.33,9.5-13.61,22-13.61h8V499.11l-13.24.13c-16.36.16-25.34,3.43-36.21,13.17-13.91,12.45-15.86,19.77-16.9,63.33-.5,21.24-.33,40.16.39,42,1,2.57,5.32,3.42,17.51,3.42h16.2l0-34Zm384-41.28c-18.38-5.81-22.73-9.69-17.7-15.76,3.64-4.38,12.18-4.35,27.2.12,11.78,3.49,11.94,3.67,11.94,12.67,0,5-.78,9-1.73,8.89s-9.82-2.8-19.71-5.92Z" transform="translate(0 0)"/></g></g></svg>